<?xml version="1.0" ?><svg data-name="Layer 1" id="Layer_1" viewBox="0 0 64 64" xmlns="http://www.w3.org/2000/svg"><defs><style>.cls-1{fill:#c397ff;}.cls-2{fill:#b189e8;}.cls-3{fill:#4f4c5f;}.cls-4{fill:#ffbc5c;}.cls-5{fill:#403d4f;}.cls-6{fill:#918291;}.cls-7{fill:#857485;}</style></defs><circle class="cls-1" cx="32.038" cy="25.917" r="25.612"/><path class="cls-2" d="M17.148,25.966A25.7,25.7,0,0,1,37.425.843a25.7,25.7,0,0,0-17.638,47.74h10.85A25.684,25.684,0,0,1,17.148,25.966Z"/><path class="cls-3" d="M56.674,60.916V64H7.327V60.916A4.111,4.111,0,0,1,11.439,56.8h3.085a3.081,3.081,0,0,1-3.085-3.085V51.663a3.081,3.081,0,0,1,3.085-3.084H49.478a3.08,3.08,0,0,1,3.084,3.084v2.056A3.081,3.081,0,0,1,49.478,56.8h3.084a4.105,4.105,0,0,1,4.081,3.629A3.608,3.608,0,0,1,56.674,60.916Z"/><path class="cls-4" d="M29.379,38.683a1.033,1.033,0,0,1,0,1.84l-1.624.813a.962.962,0,0,0-.463.462l-.812,1.625a1.034,1.034,0,0,1-1.84,0L23.828,41.8a.922.922,0,0,0-.463-.462l-1.624-.813a1.033,1.033,0,0,1,0-1.84l1.624-.812a.964.964,0,0,0,.463-.463l.812-1.624a1.034,1.034,0,0,1,1.84,0l.812,1.624a1.008,1.008,0,0,0,.463.463Z"/><path class="cls-4" d="M48.676,21.586a1.448,1.448,0,0,1,0,2.591l-2.282,1.141a1.513,1.513,0,0,0-.648.648l-1.141,2.282a1.448,1.448,0,0,1-2.591,0l-1.141-2.282a1.513,1.513,0,0,0-.648-.648l-2.282-1.141a1.448,1.448,0,0,1,0-2.591l2.282-1.141a1.516,1.516,0,0,0,.648-.647l1.141-2.283a1.448,1.448,0,0,1,2.591,0L45.746,19.8a1.516,1.516,0,0,0,.648.647Z"/><path class="cls-4" d="M25.514,16.271a1.028,1.028,0,0,1,0,1.841l-2.3,1.151a1.057,1.057,0,0,0-.463.463L21.6,22.039a1.034,1.034,0,0,1-1.841,0L18.6,19.726a1.035,1.035,0,0,0-.453-.463l-2.313-1.151a1.028,1.028,0,0,1,0-1.841l2.313-1.151a1.035,1.035,0,0,0,.453-.463l1.161-2.313a1.034,1.034,0,0,1,1.841,0l1.151,2.313a1.057,1.057,0,0,0,.463.463Z"/><path class="cls-5" d="M56.674,60.463V64H7.327V60.916A4.112,4.112,0,0,1,11.439,56.8h3.085a3.081,3.081,0,0,1-3.085-3.085V51.663a3.085,3.085,0,0,1,3.085-3.084h2.148v9.8a2.057,2.057,0,0,0,2.056,2.057H56.643Z"/><path class="cls-6" d="M52.562,51.668v2.056a3.08,3.08,0,0,1-3.084,3.084H14.524a3.081,3.081,0,0,1-3.085-3.084V51.668a3.081,3.081,0,0,1,3.085-3.085H49.478A3.081,3.081,0,0,1,52.562,51.668Z"/><path class="cls-7" d="M20.473,53.527a3.08,3.08,0,0,1-3.084-3.084v-1.86H14.524a3.081,3.081,0,0,0-3.085,3.085v2.056a3.081,3.081,0,0,0,3.085,3.084H49.478a3.08,3.08,0,0,0,3.084-3.084v-.2Z"/><path class="cls-4" d="M38.169,9.517H37.141V8.489a1.028,1.028,0,1,0-2.056,0V9.517H34.057a1.029,1.029,0,0,0,0,2.057h1.028V12.6a1.028,1.028,0,1,0,2.056,0V11.574h1.028a1.029,1.029,0,0,0,0-2.057Z"/><path class="cls-4" d="M30.973,27H29.945V25.966a1.029,1.029,0,0,0-2.057,0V27H26.86a1.028,1.028,0,0,0,0,2.056h1.028v1.028a1.029,1.029,0,0,0,2.057,0V29.051h1.028a1.028,1.028,0,0,0,0-2.056Z"/><path class="cls-4" d="M45.366,37.275H44.338V36.247a1.029,1.029,0,0,0-2.057,0v1.028H41.253a1.028,1.028,0,1,0,0,2.056h1.028v1.028a1.029,1.029,0,0,0,2.057,0V39.331h1.028a1.028,1.028,0,1,0,0-2.056Z"/></svg>